<svg id="Layer_1" data-name="Layer 1" xmlns="http://www.w3.org/2000/svg" viewBox="0 0 1000 1000"><defs><style>.cls-1{fill:#a5b730;}</style></defs><title>facebookCirc</title><path class="cls-1" d="M636.28,268.83V384H554.17c-12.85,0-23.89,11.65-23.89,24v80H637.17l-12,114H530.28v337.5l-137-12V604h-84V486h83V417.37C392.28,307.59,459.06,270,510.19,270Z"/><path class="cls-1" d="M498,71.45A423.67,423.67,0,0,1,662.85,885.28a423.67,423.67,0,0,1-329.7-780.57A420.85,420.85,0,0,1,498,71.45m0-52C235.36,19.45,22.45,232.36,22.45,495S235.36,970.55,498,970.55,973.55,757.64,973.55,495,760.64,19.45,498,19.45Z"/></svg>