<svg id="Layer_1" data-name="Layer 1" xmlns="http://www.w3.org/2000/svg" viewBox="0 0 1000 1000"><defs><style>.cls-1{fill:#a5b730;}</style></defs><title>instCirc</title><path class="cls-1" d="M498.32,71.77A423.67,423.67,0,0,1,663.17,885.6,423.67,423.67,0,0,1,333.47,105,420.85,420.85,0,0,1,498.32,71.77m0-52c-262.64,0-475.55,212.91-475.55,475.55S235.68,970.87,498.32,970.87,973.87,758,973.87,495.32,761,19.77,498.32,19.77Z"/><circle class="cls-1" cx="682.49" cy="390.73" r="41.33"/><path class="cls-1" d="M498.16,461.33a114.58,114.58,0,1,1-81,33.56,113.83,113.83,0,0,1,81-33.56m0-62A176.58,176.58,0,1,0,674.73,575.91,176.58,176.58,0,0,0,498.16,399.33Z"/><path class="cls-1" d="M641.15,294.73A138.36,138.36,0,0,1,778.91,432.49V718.15A138.36,138.36,0,0,1,641.15,855.91H355.49A138.36,138.36,0,0,1,217.73,718.15V432.49A138.36,138.36,0,0,1,355.49,294.73H641.15m0-64H355.49c-111,0-201.76,90.79-201.76,201.76V718.15c0,111,90.79,201.76,201.76,201.76H641.15c111,0,201.76-90.79,201.76-201.76V432.49c0-111-90.79-201.76-201.76-201.76Z"/></svg>