<svg id="Layer_1" data-name="Layer 1" xmlns="http://www.w3.org/2000/svg" viewBox="0 0 1000 1000"><defs><style>.cls-1{fill:#a5b730;}</style></defs><title>tubeCirc</title><path class="cls-1" d="M500,72.45A423.67,423.67,0,0,1,664.85,886.28a423.67,423.67,0,0,1-329.7-780.57A420.85,420.85,0,0,1,500,72.45m0-52C237.36,20.45,24.45,233.36,24.45,496S237.36,971.55,500,971.55,975.55,758.64,975.55,496,762.64,20.45,500,20.45Z"/><path class="cls-1" d="M775.68,333.51c-336-18-540,0-540,0-70,10-114,16.67-114,257.17,0,250.83,51,241.83,114,255.83,212,21,545,0,545,0,50.5-11.5,101-8,101-257C881.68,345.51,834.68,347.51,775.68,333.51ZM424,688.85V473.51L630,581.18Z"/><path class="cls-1" d="M199.27,806.69H800.73s-110.32,133-286.49,135S199.27,806.69,199.27,806.69Z"/></svg>