<svg id="Layer_1" data-name="Layer 1" xmlns="http://www.w3.org/2000/svg" viewBox="0 0 1000 1000"><defs><style>.cls-1{fill:#a5b730;}</style></defs><title>twitterCirc</title><path class="cls-1" d="M752.49,385.07s41.67-8,89.33-35.67c0,0-9,42.67-61.33,79,0,0,65.41-12.33,80.33-22.67,0,0-24,40-70.67,73.67,21.22,308.66-325.25,538.82-618.33,358.33,0,0,119.67,11.83,206.17-59.67,0,0-89,3.5-130.5-98,0,0,40.33,5,64.33-3,0,0-109.83-20-113.33-139.5,0,0,42.33,18.83,63,16.17,0,0-101-67.33-43.67-188,0,0,106.67,140.67,292.67,147.33C483.49,351.57,665,289.07,752.49,385.07Z"/><path class="cls-1" d="M498.32,71.77A423.67,423.67,0,0,1,663.17,885.6,423.67,423.67,0,0,1,333.47,105,420.85,420.85,0,0,1,498.32,71.77m0-52c-262.64,0-475.55,212.91-475.55,475.55S235.68,970.87,498.32,970.87,973.87,758,973.87,495.32,761,19.77,498.32,19.77Z"/><path d="M1449.41-860.23A420.85,420.85,0,0,1,1614.26-827a422.2,422.2,0,0,1,134.65,90.79,422.2,422.2,0,0,1,90.79,134.65A420.85,420.85,0,0,1,1873-436.68a420.85,420.85,0,0,1-33.26,164.85,422.2,422.2,0,0,1-90.79,134.65A422.2,422.2,0,0,1,1614.26-46.4a420.85,420.85,0,0,1-164.85,33.26A420.85,420.85,0,0,1,1284.57-46.4a422.2,422.2,0,0,1-134.65-90.79,422.2,422.2,0,0,1-90.79-134.65,420.85,420.85,0,0,1-33.26-164.85,420.85,420.85,0,0,1,33.26-164.85,422.2,422.2,0,0,1,90.79-134.65A422.2,422.2,0,0,1,1284.57-827a420.85,420.85,0,0,1,164.85-33.26m0-52c-262.64,0-475.55,212.91-475.55,475.55S1186.78,38.87,1449.41,38.87,1925-174,1925-436.68s-212.91-475.55-475.55-475.55Z"/></svg>