<svg xmlns="http://www.w3.org/2000/svg" viewBox="0 0 589.97 591"><title>SteveLogo</title><g id="Layer_2" data-name="Layer 2"><path d="M119.71,355H299.26C402.71,355,403,369,403,397.31,403,422,371.71,465,297.71,465c-61,0-101.37-32-101.37-65.85l-60,0c-8.67,0-16.67-5.18-16.67-15.18Z" transform="translate(-4 -3)"/><path d="M478,240H298.44C195,240,194.71,226,194.71,197.73,194.71,173,226,130,300,130c61,0,101.37,32,101.37,65.85l60,0C470,195.82,478,201,478,211Z" transform="translate(-4 -3)"/></g><g id="Layer_3" data-name="Layer 3"><path d="M132,443c-20.91-6-50.71-28-50.71-55V317H494V283H5.47S4,296,4,299.56C4.91,370.62,25.19,429.34,66,480c74.84,87.59,153.3,111.67,233,114l7-1,1-47h-8c-68,0-135.54-36.46-165.09-66Z" transform="translate(-4 -3)"/><path d="M466,443c20.91-6,50.71-28,50.71-55V317H104V283H592.5s1.5,13,1.47,16.56c-.91,71.06-21.19,129.77-62,180.44-74.84,87.59-153.3,111.67-233,114l-7-1-1-47h8c68,0,135.54-36.46,165.09-66Z" transform="translate(-4 -3)"/><path d="M132,154c-20.91,6-50.71,28-50.71,55v71H494v34H5.47S4,301,4,297.44C4.91,226.38,25.19,167.66,66,117,140.81,29.41,219.27,5.33,299,3l7,1,1,47h-8c-68,0-135.54,36.46-165.09,66Z" transform="translate(-4 -3)"/><path d="M466,154c20.91,6,50.71,28,50.71,55v71H104v34H592.5s1.5-13,1.47-16.56c-.91-71.06-21.19-129.77-62-180.44C457.16,29.41,378.7,5.33,299,3l-7,1-1,47h8c68,0,135.54,36.46,165.09,66Z" transform="translate(-4 -3)"/></g></svg>