<svg id="Layer_1" data-name="Layer 1" xmlns="http://www.w3.org/2000/svg" viewBox="0 0 609 608"><defs><style>.cls-1{fill:#a5b730;opacity:0.5;}</style></defs><title>logo</title><circle class="cls-1" cx="304.5" cy="306" r="297.35"/><path d="M304.65,8.65C140.43,8.65,7.3,141.78,7.3,306S140.43,603.35,304.65,603.35,602,470.22,602,306,468.87,8.65,304.65,8.65ZM264.1,242.48V227.83h64.26L304.56,306H255.7L275,242.48ZM161.5,433v14.66H96.66l23.79-78.17h48.86L150,433Zm33.32-87.95h-67L163.5,227.83H227v14.66H207.9l-26.76,87.95h13.67Zm62.58,102.6H197.7V433h19.12l26.84-88.09H230.9V330.43h66L261.22,447.69Zm38,0L398,110.56h48.86L344.28,447.69ZM500.46,306,457.34,447.69H408.48L451.6,306l3.8-12.47H442.56v-14.4h66.07Z"/></svg>