<?xml version="1.0" encoding="utf-8"?>
<!-- Generator: Adobe Illustrator 21.1.0, SVG Export Plug-In . SVG Version: 6.00 Build 0)  -->
<svg version="1.1" id="Layer_1" xmlns="http://www.w3.org/2000/svg" xmlns:xlink="http://www.w3.org/1999/xlink" x="0px" y="0px"
	 viewBox="0 0 609 608" style="enable-background:new 0 0 609 608;" xml:space="preserve">
<style type="text/css">
	.st0{fill:#A5B730;}
	.st1{fill:#C1272D;}
	.st2{fill:#C1272D;stroke:#000000;stroke-miterlimit:10;}
	.st3{fill:#2842BF;stroke:#000000;stroke-miterlimit:10;}
	.st4{fill:#0071BC;}
	.st5{fill:#2870BF;}
	.st6{fill:#2842BF;}
	.st7{fill:#FFFFFF;}
</style>
<circle class="st0" cx="304.5" cy="303.4" r="297.4"/>
<path d="M304.5,6C140.3,6,7.2,139.1,7.2,303.4s133.1,297.3,297.3,297.3s297.4-133.1,297.4-297.3S468.8,6,304.5,6z M264.3,229v-4.9
	h15.4h18.8h30.1l-23.8,78.2h-48.9l22.3-73.3L264.3,229L264.3,229z M161.7,439.1v4.9h-16h-18.2H96.8l23.8-78.2h48.9l-22.3,73.3H161.7
	z M195,336.5h-16.7h-17.5h-31.3l34.2-112.4H193h19.5h14.7v4.9h-16.1l-31.3,102.6H195V336.5z M257.5,444H232h-19.5h-14.7v-4.9h16.1
	l31.2-102.6h-14.2v-4.9h15.7h18.5h30.5L261.4,444H257.5z M295.6,444l102.6-337.1h48.9L344.4,444H295.6z M457.5,444h-48.9l49.8-163.7
	h-15.2v-4.9h16.7h17.5h31.3L457.5,444z"/>
</svg>
